<svg width="114" height="115" viewBox="0 0 114 115" fill="none" xmlns="http://www.w3.org/2000/svg">
<g clip-path="url(#clip0_172_61)">
<mask id="mask0_172_61" style="mask-type:luminance" maskUnits="userSpaceOnUse" x="16" y="0" width="73" height="115">
<path d="M16.9258 0H88.0737V114.008H16.9258V0Z" fill="white"/>
</mask>
<g mask="url(#mask0_172_61)">
<path fill-rule="evenodd" clip-rule="evenodd" d="M17.1223 80.4512C18.0891 99.1456 33.5518 114.016 52.5051 114.016C72.0653 114.016 87.9318 98.1515 87.9318 78.5889C87.9318 63.416 78.3886 50.482 64.9925 45.4283C71.4156 50.7421 75.5156 58.7816 75.5156 67.7891C75.5156 78.0532 70.1887 87.0762 62.1326 92.2296C61.1955 92.8924 60.1835 93.4565 59.1301 93.9185C57.0932 94.7855 54.8567 95.2761 52.5027 95.2761C43.2363 95.2761 35.7431 87.7686 35.7431 78.5152C35.7431 74.445 37.1861 70.7358 39.5829 67.8331C50.9432 54.1187 57.1798 45.2834 57.1798 27.5285C57.1798 17.4948 54.4933 8.09773 49.803 -0.00119019C51.5062 4.47525 52.4302 9.32463 52.4302 14.4056C52.4302 28.4228 45.2126 41.3723 33.3605 48.7622C25.4208 53.8729 19.6604 62.0585 17.7542 71.629C17.3076 73.882 17.0605 76.2064 17.0605 78.5865C17.0653 79.2112 17.095 79.8312 17.1223 80.4512Z" fill="#777D7F"/>
</g>
<mask id="mask1_172_61" style="mask-type:luminance" maskUnits="userSpaceOnUse" x="0" y="27" width="29" height="31">
<path d="M0 27.6687H28.7815V57.1616H0V27.6687Z" fill="white"/>
</mask>
<g mask="url(#mask1_172_61)">
<path fill-rule="evenodd" clip-rule="evenodd" d="M19.5899 56.9942C14.0172 52.2018 5.41353 42.8748 0 27.6746C0 27.6746 8.22957 41.2441 28.6841 47.2645C25.0902 49.9784 22.0306 53.2684 19.5899 56.9942Z" fill="#EFFCFF"/>
</g>
<mask id="mask2_172_61" style="mask-type:luminance" maskUnits="userSpaceOnUse" x="87" y="52" width="27" height="21">
<path d="M87.7676 52.2968H113.791V72.9723H87.7676V52.2968Z" fill="white"/>
</mask>
<g mask="url(#mask2_172_61)">
<path fill-rule="evenodd" clip-rule="evenodd" d="M87.9277 61.5276C94.0919 57.8909 102.696 54.165 113.811 52.5201C113.811 52.5201 100.488 59.2912 91.4219 72.9604C90.8447 68.9472 89.6475 65.0919 87.9277 61.5276Z" fill="#777D7F"/>
</g>
<path fill-rule="evenodd" clip-rule="evenodd" d="M87.9277 78.5889C87.9277 68.6289 83.8147 59.619 77.1873 53.1816C73.724 49.8181 69.5813 47.1624 64.9908 45.4283C67.3437 47.3631 69.3806 49.6886 71.0243 52.2719C73.8677 56.7614 75.5138 62.0751 75.5138 67.7915C75.5138 78.0556 70.187 87.0786 62.1308 92.232C61.1937 92.8948 60.1818 93.4589 59.1283 93.9209C57.0914 94.7879 54.855 95.2785 52.501 95.2785C43.2345 95.2785 35.7413 87.771 35.7413 78.5177C35.7413 76.5247 36.0882 74.6054 36.7224 72.8309C34.6427 77.3347 33.4883 82.3575 33.4883 87.6416C33.4883 97.6016 37.6025 106.611 44.2286 113.049C46.8855 113.684 49.6552 114.016 52.501 114.016C72.0636 114.016 87.9277 98.1515 87.9277 78.5889Z" fill="#EFFCFF"/>
<path fill-rule="evenodd" clip-rule="evenodd" d="M29.9726 9.28426C36.3826 9.28426 41.5788 14.4804 41.5788 20.9047C41.5788 27.3147 36.3826 32.5109 29.9726 32.5109C23.5626 32.5109 18.3652 27.3147 18.3652 20.9047C18.3652 14.4804 23.5626 9.28426 29.9726 9.28426Z" fill="#EFFCFF"/>
<path fill-rule="evenodd" clip-rule="evenodd" d="M88.7095 32.9278C93.6028 32.9278 97.5591 36.8983 97.5591 41.7916C97.5591 46.6849 93.6028 50.6554 88.7095 50.6554C83.8162 50.6554 79.8457 46.6849 79.8457 41.7916C79.8457 36.8983 83.8162 32.9278 88.7095 32.9278Z" fill="#777D7F"/>
<mask id="mask3_172_61" style="mask-type:luminance" maskUnits="userSpaceOnUse" x="41" y="67" width="24" height="23">
<path d="M41.8711 67.2748H64.258V89.6618H41.8711V67.2748Z" fill="white"/>
</mask>
<g mask="url(#mask3_172_61)">
<mask id="mask4_172_61" style="mask-type:luminance" maskUnits="userSpaceOnUse" x="41" y="67" width="24" height="23">
<path d="M53.062 67.2748C46.88 67.2748 41.8691 72.2857 41.8691 78.4677C41.8691 84.6497 46.88 89.6618 53.062 89.6618C59.244 89.6618 64.2561 84.6497 64.2561 78.4677C64.2561 72.2857 59.244 67.2748 53.062 67.2748Z" fill="white"/>
</mask>
<g mask="url(#mask4_172_61)">
<path d="M41.8691 67.2748H64.2561V89.6618H41.8691V67.2748Z" fill="#777D7F"/>
</g>
</g>
</g>
<defs>
<clipPath id="clip0_172_61">
<rect width="114" height="115" fill="white"/>
</clipPath>
</defs>
</svg>
